#!OML:ASF X:\für Bonn\!DataBase\2005_08_12_Daniel\c3d\Daniel.ASF
:FULLY-SPECIFIED
:DEGREES
62
root 2.5557 17.3684 11.143 173.649 -207.701 545.922
lowerback 8.86414 -0.603774 -5.96935
upperback 0.97993 -1.55646 -5.15784
thorax -3.9445 -0.694149 -1.83469
lowerneck 6.05451 -6.06447 -6.62001
upperneck 9.86377 -8.72483 5.57516
head 2.74749 -4.46054 2.91275
rclavicle 3.19049e-014 -1.74931e-014
rhumerus 1.35655 2.87014 -64.6171
rradius 69.3731
rwrist -5.72023
rhand -23.0858 15.1717
rfingers 7.12502
rthumb 3.36022 -14.7815
lclavicle 3.19049e-014 -1.74931e-014
lhumerus -32.687 12.2026 81.2926
lradius 38.4109
lwrist -8.35658
lhand -11.617 -7.48255
lfingers 7.12502
lthumb 14.426 21.9961
rfemur -18.0247 3.87332 5.98368
rtibia 34.1735
rfoot -5.01059 -4.1717
rtoes -11.8708
lfemur 3.54146 -15.4022 -31.1613
ltibia 32.1797
lfoot -21.3917 -12.9563
ltoes 1.03167
63
root 2.54962 17.357 11.277 173.71 -208.688 545.997
lowerback 8.88738 -0.674019 -6.01128
upperback 0.973482 -1.65574 -5.17935
thorax -3.96269 -0.741553 -1.82184
lowerneck 6.26964 -6.2529 -6.72526
upperneck 9.87145 -8.99867 5.67214
head 2.74445 -4.60154 2.96691
rclavicle 1.71949e-014 -1.59028e-014
rhumerus 2.82426 2.30792 -63.1726
rradius 68.3676
rwrist -5.73573
rhand -23.1808 15.1014
rfingers 7.12502
rthumb 3.26854 -14.8533
lclavicle 1.71949e-014 -1.59028e-014
lhumerus -32.1665 11.6386 81.5157
lradius 38.1998
lwrist -8.2666
lhand -11.8624 -7.54657
lfingers 7.12502
lthumb 14.1896 21.9488
rfemur -17.6087 5.19672 5.31795
rtibia 32.3754
rfoot -4.20945 -4.93078
rtoes -12.9188
lfemur 4.07581 -15.7802 -31.0672
ltibia 31.9894
lfoot -21.5424 -13.5679
ltoes 1.10361
64
root 2.54326 17.3487 11.4108 173.777 -209.67 546.065
lowerback 8.91908 -0.747647 -6.04362
upperback 0.961733 -1.75949 -5.18677
thorax -3.99086 -0.791053 -1.79885
lowerneck 6.47089 -6.4278 -6.90778
upperneck 9.87446 -9.25887 5.79078
head 2.74808 -4.73808 3.04275
rclavicle 1.19271e-015 1.43125e-014
rhumerus 4.28491 1.78132 -61.7023
rradius 67.3007
rwrist -5.66257
rhand -23.2978 15.0477
rfingers 7.12502
rthumb 3.15552 -14.9087
lclavicle 1.19271e-015 1.43125e-014
lhumerus -31.6365 11.2374 81.6974
lradius 37.8712
lwrist -8.33646
lhand -12.0273 -7.64698
lfingers 7.12502
lthumb 14.0307 21.8595
rfemur -17.2074 6.55287 4.65224
rtibia 30.665
rfoot -3.35734 -5.71772
rtoes -14.0281
lfemur 4.58671 -16.1366 -30.944
ltibia 31.8059
lfoot -21.679 -14.19
ltoes 1.18966
65
root 2.53645 17.3466 11.5447 173.859 -210.666 546.15
lowerback 8.95876 -0.826141 -6.05588
upperback 0.94722 -1.87001 -5.23132
thorax -4.02821 -0.844136 -1.825
lowerneck 6.66039 -6.59462 -7.06665
upperneck 9.90129 -9.5102 5.93893
head 2.76274 -4.86885 3.12428
rclavicle 7.77248e-014 2.8625e-014
rhumerus 5.70348 1.1856 -60.3193
rradius 66.1612
rwrist -5.45646
rhand -23.4044 14.9885
rfingers 7.12502
rthumb 3.05252 -14.9694
lclavicle 7.77248e-014 2.8625e-014
lhumerus -31.0992 10.9151 81.7997
lradius 37.4383
lwrist -8.57616
lhand -12.1655 -7.70976
lfingers 7.12502
lthumb 13.8975 21.8059
rfemur -16.821 7.94265 3.96063
rtibia 29.0659
rfoot -2.40997 -6.52351
rtoes -15.0867
lfemur 5.07907 -16.4648 -30.8066
ltibia 31.6142
lfoot -21.8316 -14.8505
ltoes 1.23193
66
root 2.52819 17.3425 11.6791 173.941 -211.678 546.224
lowerback 8.98672 -0.90526 -6.05991
upperback 0.946829 -1.97814 -5.27567
thorax -4.04458 -0.896661 -1.85588
lowerneck 6.82658 -6.76908 -7.18983
upperneck 9.92177 -9.7673 6.06277
head 2.77692 -5.00135 3.19015
rclavicle -4.27387e-015 -2.54444e-014
rhumerus 7.10599 0.550671 -58.9547
rradius 64.9468
rwrist -5.15806
rhand -23.5228 14.9155
rfingers 7.12502
rthumb 2.93825 -15.044
lclavicle -4.27387e-015 -2.54444e-014
lhumerus -30.5056 10.6149 81.8679
lradius 36.8993
lwrist -8.82563
lhand -12.2075 -7.75658
lfingers 7.12502
lthumb 13.857 21.7618
rfemur -16.4421 9.32342 3.28054
rtibia 27.6077
rfoot -1.44497 -7.24741
rtoes -15.9015
lfemur 5.56452 -16.7743 -30.6303
ltibia 31.4
lfoot -21.9758 -15.5414
ltoes 1.21427
67
root 2.51905 17.3353 11.8159 174.02 -212.736 546.318
lowerback 9.0181 -0.994837 -6.05642
upperback 0.951893 -2.10006 -5.3472
thorax -4.05852 -0.956275 -1.91773
lowerneck 6.98914 -6.94125 -7.31494
upperneck 9.96146 -10.023 6.19649
head 2.79991 -5.13314 3.25963
rclavicle 2.29596e-014 9.54166e-015
rhumerus 8.42808 -0.104676 -57.6467
rradius 63.6951
rwrist -4.78045
rhand -23.6631 14.876
rfingers 7.12502
rthumb 2.80275 -15.0853
lclavicle 2.29596e-014 9.54166e-015
lhumerus -29.8803 10.3468 81.8605
lradius 36.2333
lwrist -9.18527
lhand -12.2116 -7.86519
lfingers 7.12502
lthumb 13.8531 21.6535
rfemur -16.0369 10.7162 2.58657
rtibia 26.3081
rfoot -0.598981 -7.8973
rtoes -16.418
lfemur 6.06289 -17.0757 -30.446
ltibia 31.1665
lfoot -22.1136 -16.2944
ltoes 1.16799
68
root 2.50969 17.3288 11.9566 174.102 -213.847 546.423
lowerback 9.00484 -1.09113 -6.05558
upperback 0.988374 -2.22433 -5.43883
thorax -4.01549 -1.01833 -1.99974
lowerneck 7.14386 -7.12258 -7.41088
upperneck 9.96946 -10.2899 6.35074
head 2.81465 -5.26917 3.33084
rclavicle -3.67752e-015 -3.02153e-014
rhumerus 9.73954 -0.944588 -56.4873
rradius 62.3323
rwrist -4.20255
rhand -23.7391 14.976
rfingers 7.12502
rthumb 2.72934 -14.9862
lclavicle -3.67752e-015 -3.02153e-014
lhumerus -29.1953 10.0682 81.8027
lradius 35.4905
lwrist -9.54146
lhand -12.1113 -7.93301
lfingers 7.12502
lthumb 13.9497 21.579
rfemur -15.5918 12.1181 1.89563
rtibia 25.1671
rfoot -0.0239731 -8.5544
rtoes -16.6
lfemur 6.56712 -17.4365 -30.26
ltibia 30.9315
lfoot -22.2747 -17.0809
ltoes 1.02227
69
root 2.50004 17.3235 12.1015 174.197 -215.009 546.535
lowerback 8.9545 -1.20159 -6.08609
upperback 1.02912 -2.36586 -5.52423
thorax -3.94596 -1.08885 -2.05657
lowerneck 7.30433 -7.30821 -7.44965
upperneck 9.98538 -10.5563 6.45228
head 2.82421 -5.40377 3.37352
rclavicle -6.04305e-014 3.65764e-014
rhumerus 11.0357 -1.82928 -55.4019
rradius 60.8321
rwrist -3.51298
rhand -23.8455 15.191
rfingers 7.12502
rthumb 2.62659 -14.7725
lclavicle -6.04305e-014 3.65764e-014
lhumerus -28.5096 9.85076 81.7246
lradius 34.6379
lwrist -9.92843
lhand -12.0309 -8.02745
lfingers 7.12502
lthumb 14.0272 21.4792
rfemur -15.1194 13.361 1.26131
rtibia 24.2079
rfoot 0.423573 -9.07455
rtoes -16.9771
lfemur 7.0623 -17.7915 -30.0395
ltibia 30.6889
lfoot -22.4333 -17.9267
ltoes 0.910913
